<svg width="24px" height="24px" viewBox="0 0 32 32" xmlns="http://www.w3.org/2000/svg" aria-labelledby="info-2" class="spot-icon" style="width: 24px; height: 24px;"><title>info-2</title><path d="M16 30C8.268 30 2 23.732 2 16S8.268 2 16 2s14 6.268 14 14-6.268 14-14 14zm4-7.728c-.649.283-1.965.504-2.522.087-.565-.421-.2-1.842.002-2.487l.974-3.19c.169-.52.249-1.27.249-1.699 0-1.487-1.246-2.269-2.942-2.269-1.13 0-2.45.482-3.5.877l-.261.986c.471-.163.992-.317 1.462-.317.964 0 1.319.23 1.319 1.095 0 .502-.17 1.136-.31 1.623-.787 2.58-1.226 3.655-1.226 4.888 0 .658.263 1.2.789 1.628 1.764 1.436 4.823.086 5.706-.235l.26-.987zm-2.857-11.843a1.714 1.714 0 1 0 0-3.429 1.714 1.714 0 0 0 0 3.429z" fill-rule="evenodd"></path></svg>
